<svg width="301" height="300" viewBox="0 0 301 300" fill="none" xmlns="http://www.w3.org/2000/svg">
<rect x="50" y="49.9995" width="200" height="199.998" fill="white"/>
<path d="M289.737 61.1739C283.033 33.5542 265.821 16.2705 237.806 9.80822C209.002 3.36391 179.957 0.00244141 150.653 0.00244141C121.348 0.00244141 92.545 3.36391 64.5383 10.0689C37.0239 16.5222 18.2543 31.7476 11.3086 59.637C3.8706 89.0543 0.00390625 119.505 0.00390625 149.956C0.00390625 180.407 3.35146 209.851 10.2882 238.756C16.9654 266.385 34.1955 283.678 62.2111 290.131C119.29 303.28 178.418 303.28 235.478 290.131C263.002 283.678 281.762 268.434 288.69 240.302C296.146 210.885 300.004 180.416 300.004 149.947C300.004 119.478 296.674 90.07 289.729 61.1649L289.737 61.1739ZM75.843 177.342C75.0733 176.56 74.3035 175.787 73.5338 175.014C70.1951 171.132 68.1275 165.973 67.6174 160.562L66.3374 86.2142C66.0778 80.5428 69.9356 78.4576 74.5541 81.8191L145.005 132.924L79.1906 180.155L75.852 177.333L75.843 177.342ZM233.939 161.074C233.438 167.519 230.6 173.468 225.722 177.846L158.878 231.027C154.009 234.649 147.574 234.649 142.678 231.027L94.1024 191.795L84.8385 184.569L150.894 137.077L183.296 113.852L228.801 81.3068C232.668 79.7699 235.219 81.8371 235.219 86.7355L233.939 161.074V161.074Z" fill="#FE6446"/>
</svg>
