<?xml version="1.0" encoding="UTF-8" standalone="no"?>
<svg
   id="Layer_2"
   data-name="Layer 2"
   viewBox="0 0 600.00004 600"
   version="1.1"
   sodipodi:docname="gr_logo.svg"
   inkscape:version="1.4 (e7c3feb100, 2024-10-09)"
   width="600"
   height="600"
   xmlns:inkscape="http://www.inkscape.org/namespaces/inkscape"
   xmlns:sodipodi="http://sodipodi.sourceforge.net/DTD/sodipodi-0.dtd"
   xmlns="http://www.w3.org/2000/svg"
   xmlns:svg="http://www.w3.org/2000/svg">
  <sodipodi:namedview
     id="namedview2"
     pagecolor="#505050"
     bordercolor="#eeeeee"
     borderopacity="1"
     inkscape:showpageshadow="0"
     inkscape:pageopacity="0"
     inkscape:pagecheckerboard="0"
     inkscape:deskcolor="#505050"
     inkscape:zoom="0.91055874"
     inkscape:cx="94.447504"
     inkscape:cy="290.48099"
     inkscape:window-width="2512"
     inkscape:window-height="1392"
     inkscape:window-x="2581"
     inkscape:window-y="21"
     inkscape:window-maximized="1"
     inkscape:current-layer="Layer_2" />
  <defs
     id="defs1">
    <style
       id="style1">
      .cls-1 {
        fill: #fff;
        stroke-width: 0px;
      }
    </style>
  </defs>
  <rect
     style="opacity:1;fill:#2b3440;fill-opacity:1;stroke-width:0.681671"
     id="rect2"
     width="600"
     height="600"
     x="-5.6843419e-14"
     y="-4.9737992e-14" />
  <g
     id="Layer_1-2"
     data-name="Layer 1">
    <path
       class="cls-1"
       d="m 297.73897,282.44327 c -15.1966,3.15283 -29.84372,6.18855 -44.66199,9.26029 -0.84676,-3.11678 -1.54038,-6.08945 -2.46821,-8.99004 -3.26992,-10.21516 -8.25139,-19.26826 -17.62878,-25.2316 -6.64796,-4.22478 -14.01656,-5.99937 -21.79052,-6.43176 -8.62973,-0.47743 -17.0973,0.20719 -25.16854,3.52216 -12.56625,5.16161 -20.17806,14.91735 -24.06054,27.50162 -5.89127,19.11513 -6.42275,38.55453 -1.13502,57.88584 5.27873,19.28627 19.27727,30.86164 39.17608,32.98754 12.64733,1.35121 25.19557,0.96387 37.23034,-3.79239 12.99864,-5.1346 19.34933,-16.56583 17.55672,-30.33917 H 206.65842 V 300 H 300 v 110.00651 h -44.74307 v -43.4369 c -0.25222,-0.054 -0.50445,-0.1081 -0.76568,-0.16214 -0.24322,0.72965 -0.51346,1.45931 -0.71164,2.19797 -4.08065,14.8543 -11.46726,27.42055 -24.84425,35.78905 -9.74672,6.09846 -20.58343,8.56666 -31.91558,9.0531 -16.74599,0.72065 -32.62721,-2.38713 -47.04012,-11.35917 -16.85409,-10.4944 -27.26741,-25.93422 -33.67215,-44.35572 -4.17974,-11.98974 -6.1435,-24.41186 -6.61192,-37.06819 -0.70263,-19.01603 1.17105,-37.68075 8.11627,-55.56177 11.86362,-30.57338 34.2847,-48.5805 66.31738,-54.6159 19.3133,-3.63926 38.65362,-3.29695 57.58857,2.29706 28.02409,8.27841 45.04934,27.38452 52.78727,55.16539 1.29716,4.63916 2.11689,9.41344 3.24291,14.49398 z"
       id="path1"
       style="fill:#f2f2f2;fill-opacity:1" />
    <path
       class="cls-1"
       d="m 440.75722,332.6012 c 17.75489,25.682 35.50979,51.35499 53.54394,77.43334 -1.40526,0.0721 -2.26102,0.16215 -3.11679,0.16215 -16.93517,0 -33.86132,-0.036 -50.79649,0.063 -2.07185,0.009 -3.11678,-0.72064 -4.1437,-2.41416 -13.87243,-22.70033 -27.83493,-45.3466 -41.70735,-68.03792 -1.07197,-1.75658 -2.18896,-2.54928 -4.3509,-2.51325 -7.75594,0.15313 -15.51189,0.0631 -23.58312,0.0631 V 409.9895 H 319.0132 V 212.47864 c 0.97287,0 1.9007,0 2.81952,0 30.06893,0.027 60.13785,-0.0631 90.20678,0.14413 12.77344,0.0901 25.28564,2.16193 37.04117,7.4857 15.91725,7.21546 25.9162,19.35833 29.69959,36.43763 3.13481,14.13366 2.90961,28.21326 -1.88268,41.96858 -5.72012,16.43972 -17.6378,26.78098 -33.55505,32.93349 -0.65759,0.25222 -1.32418,0.47743 -1.98178,0.72965 -0.15313,0.054 -0.27024,0.18917 -0.61254,0.43239 z m -74.21747,-34.93328 c 15.53892,0 30.82561,0.84676 45.97718,-0.23421 16.23253,-1.15303 23.81732,-12.0708 20.70053,-27.23138 -1.16204,-5.64806 -4.28783,-10.08003 -9.66565,-12.03478 -4.56709,-1.65748 -9.50351,-2.97266 -14.31382,-3.1258 -13.65623,-0.43238 -27.33047,-0.20718 -40.99571,-0.21619 -0.57652,0 -1.15303,0.17115 -1.70253,0.26123 z"
       id="path2"
       style="fill:#f2f2f2;fill-opacity:1" />
  </g>
</svg>
