<?xml version="1.0" encoding="UTF-8" standalone="no"?>
<svg
   version="1.1"
   width="1080"
   height="1080"
   viewBox="0 0 1080 1080"
   xml:space="preserve"
   id="svg7"
   sodipodi:docname="paddle_logo.svg"
   inkscape:version="1.4 (e7c3feb100, 2024-10-09)"
   xmlns:inkscape="http://www.inkscape.org/namespaces/inkscape"
   xmlns:sodipodi="http://sodipodi.sourceforge.net/DTD/sodipodi-0.dtd"
   xmlns="http://www.w3.org/2000/svg"
   xmlns:svg="http://www.w3.org/2000/svg"><sodipodi:namedview
   id="namedview7"
   pagecolor="#505050"
   bordercolor="#eeeeee"
   borderopacity="1"
   inkscape:showpageshadow="0"
   inkscape:pageopacity="0"
   inkscape:pagecheckerboard="0"
   inkscape:deskcolor="#505050"
   inkscape:zoom="0.54768519"
   inkscape:cx="980.49028"
   inkscape:cy="676.48352"
   inkscape:window-width="2512"
   inkscape:window-height="1392"
   inkscape:window-x="2581"
   inkscape:window-y="21"
   inkscape:window-maximized="1"
   inkscape:current-layer="g6" />
<desc
   id="desc1">Created with Fabric.js 5.2.4</desc>
<defs
   id="defs1">
</defs>



<g
   vector-effect="non-scaling-stroke"
   id="g6"
   transform="matrix(8.7110821,0,0,8.7110822,1846.1409,475.91873)"
   style="opacity:1">
		
		<g
   transform="translate(-149.94014,7.3562924)"
   id="g3">
<rect
   style="opacity:1;fill:#ffdd35;fill-rule:nonzero;stroke:none;stroke-width:1;stroke-linecap:butt;stroke-linejoin:miter;stroke-miterlimit:4;stroke-dasharray:none;stroke-dashoffset:0"
   vector-effect="non-scaling-stroke"
   x="-61.990002"
   y="-61.990002"
   rx="0"
   ry="0"
   width="123.98"
   height="123.98"
   id="rect3" />
</g>
		<g
   transform="matrix(0.67527889,0,0,0.67527889,-162.04763,-4.1965444)"
   id="g4">
<path
   style="opacity:1;fill:#040f11;fill-rule:nonzero;stroke:none;stroke-width:1;stroke-linecap:butt;stroke-linejoin:miter;stroke-miterlimit:4;stroke-dasharray:none;stroke-dashoffset:0"
   vector-effect="non-scaling-stroke"
   d="m -17.45,1.69 v -3.41 c 4.2,0 8.23,-1.66 11.21,-4.61 2.97,-2.94 4.64,-6.95 4.65,-11.13 h 3.17 c 0,4.19 1.66,8.2 4.64,11.15 2.98,2.97 7.02,4.63 11.22,4.62 V 1.72 C 13.24,1.72 9.21,3.38 6.23,6.33 3.26,9.27 1.59,13.28 1.58,17.46 h -3.17 c 0,-4.19 -1.66,-8.2 -4.64,-11.15 -2.99,-2.96 -7.02,-4.62 -11.22,-4.62 z"
   stroke-linecap="round"
   id="path3" />
</g>
		<g
   transform="matrix(0.67527889,0,0,0.67527889,-142.35651,5.7503137)"
   id="g5">
<path
   style="opacity:1;fill:#040f11;fill-rule:nonzero;stroke:none;stroke-width:1;stroke-linecap:butt;stroke-linejoin:miter;stroke-miterlimit:4;stroke-dasharray:none;stroke-dashoffset:0"
   vector-effect="non-scaling-stroke"
   d="m -30.75,-38.1 h 27.27 c 13.32,0 22.84,9.45 22.84,23.3 0,13.85 -9.51,23.3 -22.84,23.3 h -27.28 v 39.68 h 11.41 v -29.6 h 15.86 c 19.16,0 34.26,-14.99 34.26,-33.38 0,-18.39 -15.1,-33.38 -34.26,-33.38 h -27.27 v 10.08 z"
   stroke-linecap="round"
   id="path4" />
</g>
</g>
</svg>
